<svg width="24" height="6" viewBox="0 0 24 6" fill="none" xmlns="http://www.w3.org/2000/svg">
<g clip-path="url(#clip0_67_198)">
<path d="M17.2296 2.62827C18.1431 2.66155 18.7755 2.7614 19.1268 2.89452C19.4782 3.02765 19.689 3.26061 19.689 3.56014C19.689 4.1592 18.916 4.65842 17.3701 5.04115C15.8243 5.42389 13.8568 5.62357 11.4677 5.62357C10.5542 5.62357 9.64069 5.59029 8.72721 5.50709C7.81373 5.42389 7.11105 5.3074 6.47864 5.17428C5.77596 5.02451 5.21382 4.84147 4.86248 4.67506C4.58141 4.49202 4.37061 4.30897 4.37061 4.12592C4.37061 3.92624 4.58141 3.75983 4.93275 3.64335C5.28409 3.52686 5.9165 3.4603 6.68944 3.41038C6.54891 3.32718 6.40837 3.26061 6.3381 3.19405C6.26784 3.14413 6.19757 3.09421 6.19757 3.06093C6.19757 2.96108 6.40837 2.8446 6.90025 2.72812C7.39212 2.61163 7.81373 2.56171 8.23533 2.56171C8.44614 2.56171 8.58667 2.56171 8.79748 2.57835C9.00828 2.59499 9.21908 2.61163 9.50015 2.66155C8.86774 2.16234 8.23533 1.74632 7.88399 1.46343C7.53266 1.18054 7.39212 0.997498 7.39212 0.881014C7.39212 0.731249 7.53266 0.614765 7.88399 0.531562C8.16507 0.448359 8.65694 0.398438 9.21908 0.398438C10.1326 0.398438 11.3271 0.897654 12.8027 1.91273C13.0838 2.07913 13.2243 2.21226 13.3649 2.3121C13.5054 2.24554 13.646 2.12906 13.8568 1.99593C15.3324 0.997498 16.5972 0.498281 17.5809 0.498281C18.0728 0.498281 18.4944 0.531562 18.8458 0.614765C19.1268 0.697968 19.3376 0.814452 19.3376 0.947576C19.3376 1.04742 19.1971 1.24711 18.8458 1.53C18.4242 1.81289 17.9323 2.17898 17.2296 2.62827ZM6.40837 4.09264C6.54891 4.12592 6.75971 4.19249 6.97051 4.27569C7.60292 4.49202 8.23533 4.6085 8.79748 4.6085C9.00828 4.6085 9.14881 4.59186 9.28935 4.55858C9.42989 4.5253 9.50015 4.49202 9.50015 4.47538C9.50015 4.44209 9.42988 4.37553 9.21908 4.29233C9.00828 4.20913 8.72721 4.10928 8.37587 4.00944C7.95426 3.89296 7.60292 3.79311 7.39212 3.74319C7.11105 3.69327 6.90025 3.65999 6.75971 3.65999C6.40837 3.65999 6.05703 3.70991 5.77596 3.79311C5.49489 3.87631 5.35435 3.9928 5.35435 4.10928C5.35435 4.20913 5.42462 4.30897 5.63543 4.44209C5.84623 4.55858 6.1273 4.6917 6.54891 4.80819C7.18132 4.97459 7.88399 5.12436 8.79748 5.2242C9.71096 5.32404 10.6244 5.37397 11.7487 5.37397C13.7162 5.37397 15.3324 5.20756 16.6675 4.85811C18.0026 4.50866 18.635 4.076 18.635 3.5435C18.635 3.3771 18.5647 3.26061 18.4944 3.16077C18.4242 3.06093 18.2134 2.99437 18.0026 2.96108C17.5809 2.87788 16.808 2.81132 15.6134 2.74476C14.4189 2.67819 13.1541 2.64491 11.8893 2.64491C11.5379 2.64491 11.2568 2.66155 11.1163 2.69483C10.9758 2.72812 10.9055 2.77804 10.9055 2.8446C10.9055 3.01101 11.2568 3.12749 12.0298 3.19405C12.8027 3.26061 14.0676 3.31054 15.754 3.31054H16.3864C16.5269 3.31054 16.6675 3.32718 16.7377 3.34382C16.808 3.3771 16.8783 3.41038 16.8783 3.4603C16.7377 3.49358 16.3864 3.5435 15.8243 3.59343C15.2621 3.64335 14.9108 3.69327 14.6297 3.74319C13.9973 3.84303 13.5054 3.97616 13.1541 4.12592C12.8027 4.27569 12.5919 4.40881 12.5919 4.54194C12.5919 4.62514 12.6622 4.70834 12.8027 4.82483C12.9433 4.94131 13.0135 5.00787 13.0135 5.02451V5.05779V5.09108C12.5919 5.09108 12.2406 5.02451 11.9595 4.90803C11.6785 4.79155 11.6082 4.64178 11.6082 4.44209V4.40881C11.5379 4.42545 11.4677 4.44209 11.3974 4.44209C11.3271 4.44209 11.2568 4.45873 11.1163 4.45873H10.8352C10.765 4.45873 10.6947 4.44209 10.5542 4.44209C10.5542 4.47537 10.6244 4.49202 10.6244 4.5253V4.59186C10.6244 4.67506 10.4839 4.75826 10.2028 4.82483C9.92176 4.89139 9.57042 4.92467 9.14881 4.92467C8.5164 4.92467 7.88399 4.85811 7.18132 4.70834C6.54891 4.55858 6.19757 4.42545 6.19757 4.27569C6.19757 4.24241 6.19757 4.22577 6.26784 4.20913C6.26784 4.12592 6.3381 4.10928 6.40837 4.09264ZM10.9758 4.17585C11.1163 4.17585 11.3271 4.1592 11.4677 4.12592C11.6082 4.09264 11.6785 4.04272 11.6785 4.00944C11.6785 3.95952 11.5379 3.85967 11.2568 3.69327C10.9758 3.52686 10.6244 3.36046 10.2028 3.21069C9.92176 3.09421 9.57042 2.99436 9.28935 2.94444C9.00828 2.87788 8.72721 2.86124 8.44614 2.86124C8.23533 2.86124 8.02453 2.89452 7.74346 2.96108C7.46239 3.02765 7.39212 3.07757 7.39212 3.14413C7.39212 3.19405 7.53266 3.2939 7.74346 3.41038C8.02453 3.52686 8.3056 3.64335 8.72721 3.77647C9.14881 3.9096 9.57042 4.02608 9.99203 4.10928C10.4136 4.14256 10.6947 4.17585 10.9758 4.17585ZM12.4514 2.44523L10.765 1.33031C10.3434 1.04742 10.0623 0.847733 9.78122 0.76453C9.57042 0.681327 9.35962 0.631405 9.07855 0.631405C8.86774 0.631405 8.72721 0.648046 8.58667 0.681327C8.37587 0.731249 8.3056 0.78117 8.3056 0.847733C8.3056 0.964217 8.5164 1.14726 8.86774 1.41351C9.21908 1.67976 9.78122 2.04585 10.4839 2.47851C10.5542 2.44523 10.6244 2.42859 10.765 2.42859C10.9055 2.41195 11.046 2.41195 11.1866 2.41195H11.5379C11.7487 2.42859 12.0298 2.42859 12.4514 2.44523ZM14.1378 3.52686C13.7162 3.52686 13.2946 3.51022 12.873 3.49358C12.4514 3.47694 12.1001 3.4603 11.7487 3.42702C11.8893 3.51022 12.0298 3.57678 12.1703 3.65999C12.3109 3.74319 12.3811 3.80975 12.4514 3.89296C12.6622 3.82639 12.9433 3.75983 13.2243 3.69327C13.5757 3.62671 13.8568 3.57678 14.1378 3.52686ZM16.1756 2.56171C16.8783 2.12906 17.3701 1.76296 17.7917 1.48007C18.1431 1.19718 18.3539 1.03078 18.3539 0.964217C18.3539 0.897654 18.2836 0.847733 18.1431 0.797811C18.0026 0.76453 17.862 0.747889 17.6512 0.747889C17.3701 0.747889 17.0891 0.797811 16.808 0.914295C16.5269 1.03078 16.1756 1.19718 15.8243 1.44679L14.2784 2.47851L16.1756 2.56171Z" fill="white"/>
</g>
<defs>
<clipPath id="clip0_67_198">
<rect width="24" height="5.68359" fill="white" transform="translate(0 0.171143)"/>
</clipPath>
</defs>
</svg>
